<?xml version="1.0" encoding="UTF-8"?>
<svg viewBox="0 0 293.33 393.31" xmlns="http://www.w3.org/2000/svg">
 <g fill="#fff" stroke-linejoin="round">
  <g fill-rule="evenodd" stroke-width="4">
   <path d="m143 77.503c1.5-30.5 39-75 45.5-75.5s-14 70.5-19.5 75.5-25.5 1.5-26 0z" stroke="#000"/>
   <path d="m188.5 2c-0.51578 0.039673-1.2523 0.37271-2.125 0.9375-0.95374 13.17-22.907 66.265-28.156 70.125-2.9616 2.1777-9.2483 1.9409-14.875 0.9375-0.15404 1.1804-0.28749 2.356-0.34375 3.5 0.5 1.5 20.5 5 26 0s26-76 19.5-75.5z"/>
  </g>
  <g stroke="#000" stroke-linecap="round">
   <path d="m269.77 189.8a123.39 123.39 0 1 1 -246.77 0 123.39 123.39 0 1 1 246.77 0z" stroke-width="2.204"/>
   <g stroke-width="4">
    <path d="m230.42 309.72c0 21.545-17.486 20.774-39.03 20.774-21.545 0-39.03 0.77051-39.03-20.774s17.486-39.03 39.03-39.03c21.545 0 39.03 17.486 39.03 39.03z"/>
    <path d="m140.4 309.72c0 21.545-17.486 20.774-39.03 20.774-11.98 0-22.705 0.23822-29.866-3.2543-5.7178-2.7884-9.1641-7.9551-9.1641-17.52 0-21.545 17.486-39.03 39.03-39.03 21.545 0 39.03 17.486 39.03 39.03z"/>
   </g>
  </g>
 </g>
 <g stroke-linecap="round">
  <g transform="matrix(-1 0 0 1 652.15 -2.8284)" fill="none" stroke="#000" stroke-width="4">
   <path d="m536.42 330.18c-3.5026-11.331 0.50037-24.551 0.50037-24.551"/>
   <path d="m554.45 332.7c4.293-18.256-0.61334-32.735-0.61334-32.735"/>
   <path d="m572.7 330.81c8.8133-13.85 1.259-25.181 1.259-25.181"/>
  </g>
  <g stroke-linejoin="round">
   <g fill="#fff" stroke="#000">
    <path d="m241.77 156.8a95.386 95.386 0 1 1 -190.77 0 95.386 95.386 0 1 1 190.77 0z" stroke-width="2.851"/>
    <g stroke-width="5.931">
     <path d="m142.26 138.79a27.384 27.384 0 1 1 -54.768 0 27.384 27.384 0 1 1 54.768 0z"/>
     <path d="m205.84 138.79a27.384 27.384 0 1 1 -54.768 0 27.384 27.384 0 1 1 54.768 0z"/>
    </g>
   </g>
   <g stroke-width="32">
    <path d="m131.56 141.93a8.4985 8.4985 0 1 1 -16.997 0 8.4985 8.4985 0 1 1 16.997 0z"/>
    <path d="m178.14 141.93a8.4985 8.4985 0 1 1 -16.997 0 8.4985 8.4985 0 1 1 16.997 0z"/>
   </g>
   <g stroke-width="4">
    <path d="m171.73 203.23c0 13.776-15.086 24.956-25.067 24.956-10.752 0-25.067-11.18-25.067-24.956s11.23-17.277 25.067-17.277 25.067 3.5015 25.067 17.277z"/>
    <path d="m211.89 276.52c4.7228 6.48 7.5312 14.467 7.5312 23.094 0 12.466-5.8351 23.559-14.906 30.75 15.081-0.57257 25.906-3.6937 25.906-20.625 0-14.032-7.4066-26.34-18.531-33.219z" fill="#fff"/>
   </g>
  </g>
  <g fill="none" stroke="#000" stroke-width="4">
   <path d="m178.12 327.35c-3.5026-11.331 0.5004-24.551 0.5004-24.551"/>
   <path d="m196.14 329.87c4.293-18.256-0.61331-32.735-0.61331-32.735"/>
   <path d="m214.4 327.98c8.8133-13.85 1.259-25.181 1.259-25.181"/>
  </g>
 </g>
 <g fill="#fff" stroke-linejoin="round" stroke-width="4">
  <g stroke-linecap="round">
   <path d="m121.39 276.52c4.7228 6.48 7.5312 14.467 7.5312 23.094 0 12.466-5.8351 23.559-14.906 30.75 15.081-0.57257 25.906-3.6937 25.906-20.625 0-14.032-7.4066-26.34-18.531-33.219z"/>
   <path d="m157.58 290.24c-3.3125 5.7347-5.2188 12.406-5.2188 19.5 0 17.505 11.553 20.263 27.438 20.688-15.78-6.578-23.805-22.208-22.219-40.188z"/>
  </g>
  <g fill-rule="evenodd">
   <g stroke="#000">
    <path d="m79.209 88.003c-54.92-3.8741-83.529 62.302-76.029 81.802 6.0974 15.853 39.788 31.843 38.429 17.303-4.4099-47.184 54.734-97.896 37.6-99.105z"/>
    <path d="m214.12 88.003c54.92-3.8741 83.529 62.302 76.029 81.802-6.0974 15.853-39.788 31.843-38.429 17.303 4.4099-47.184-54.734-97.896-37.6-99.105z"/>
   </g>
   <path d="m219.19 87.844c50.899 10.295 64.66 77.406 53.75 94.531-2.4181 3.7956-6.7552 7.1892-11.719 9.9062 10.085-2.3312 25.068-12.407 28.938-22.469 7.2656-18.891-19.367-81.591-70.969-81.969z"/>
  </g>
 </g>
</svg>
